<svg width="16" height="16" viewBox="0 0 16 16" fill="none" xmlns="http://www.w3.org/2000/svg">
<g clip-path="url(#clip0_338_456)">
<g clip-path="url(#clip1_338_456)">
<path d="M5.524 7.05207L5.86533 1.28073C5.86804 1.23557 5.88569 1.1926 5.9155 1.15857C5.94531 1.12453 5.98559 1.10138 6.03 1.09273L11.5847 0.00406757C11.619 -0.00266931 11.6544 -0.000476857 11.6876 0.0104346C11.7209 0.021346 11.7507 0.0406101 11.7743 0.0663787C11.798 0.0921472 11.8146 0.123555 11.8226 0.157589C11.8306 0.191623 11.8297 0.227141 11.82 0.260734L10.7813 3.86273C10.7717 3.89626 10.7708 3.93171 10.7788 3.96567C10.7867 3.99964 10.8033 4.03099 10.8268 4.05674C10.8504 4.08249 10.8801 4.10177 10.9132 4.11274C10.9464 4.12371 10.9817 4.126 11.016 4.1194L12.608 3.81273C12.6455 3.80541 12.6842 3.80874 12.7199 3.82235C12.7555 3.83596 12.7867 3.85929 12.8097 3.88971C12.8328 3.92013 12.8468 3.95641 12.8503 3.99442C12.8538 4.03243 12.8465 4.07065 12.8293 4.10473L8.30266 13.1381L8.22066 13.2647C8.20303 13.2934 8.17831 13.3171 8.14889 13.3334C8.11946 13.3498 8.08632 13.3582 8.05266 13.3581C7.93466 13.3581 7.81933 13.2567 7.84933 13.1121L8.57933 9.57807C8.5865 9.54345 8.58454 9.50757 8.57366 9.47393C8.56279 9.4403 8.54335 9.41007 8.51727 9.3862C8.49119 9.36234 8.45936 9.34567 8.42489 9.33781C8.39042 9.32996 8.35451 9.33119 8.32066 9.3414L7.36533 9.6314C7.33151 9.64171 7.29559 9.64305 7.26109 9.63529C7.2266 9.62753 7.19471 9.61094 7.16856 9.58714C7.14241 9.56334 7.12289 9.53316 7.11192 9.49954C7.10096 9.46593 7.09891 9.43004 7.106 9.3954L7.566 7.1454C7.57297 7.11181 7.57136 7.077 7.56131 7.04419C7.55126 7.01139 7.53311 6.98164 7.50852 6.95772C7.48392 6.93379 7.4537 6.91645 7.42063 6.90731C7.38756 6.89817 7.35272 6.89751 7.31933 6.9054L5.77266 7.26273C5.74179 7.26983 5.7097 7.26963 5.67892 7.26217C5.64814 7.25471 5.61952 7.24018 5.59532 7.21974C5.57113 7.1993 5.55203 7.17351 5.53953 7.1444C5.52704 7.1153 5.52149 7.08369 5.52333 7.05207H5.524ZM15.508 1.76807L11.5227 2.4934L11.16 3.7514L12.5447 3.48473C12.652 3.46334 12.7633 3.47547 12.8634 3.51948C12.9636 3.56349 13.0478 3.63724 13.1047 3.73073C13.1529 3.80849 13.1803 3.89735 13.1843 3.98877C13.1883 4.08019 13.1686 4.17109 13.1273 4.25273L8.59999 13.2867L8.59133 13.3034L8.58133 13.3187L8.5 13.4454C8.45192 13.5207 8.38571 13.5828 8.30744 13.6259C8.22918 13.6689 8.14134 13.6917 8.052 13.6921C7.97108 13.6916 7.89125 13.6734 7.8182 13.6386C7.74515 13.6038 7.68066 13.5533 7.62933 13.4907C7.5794 13.4289 7.54391 13.3567 7.52546 13.2795C7.507 13.2022 7.50605 13.1218 7.52266 13.0441L8.20866 9.7234L7.462 9.95007C7.35986 9.98083 7.25091 9.98066 7.14887 9.94958C7.04684 9.91849 6.95629 9.85789 6.88866 9.7754C6.83824 9.71383 6.8022 9.64178 6.78317 9.5645C6.76414 9.48723 6.7626 9.40668 6.77866 9.32873L7.19866 7.2754L5.84733 7.5874C5.75585 7.60835 5.66048 7.60504 5.57068 7.5778C5.48087 7.55055 5.39975 7.50032 5.33533 7.43207C5.28539 7.37866 5.24682 7.31567 5.22195 7.24691C5.19708 7.17815 5.18644 7.10506 5.19066 7.03207L5.45 2.65207L0.489995 1.7654C0.413574 1.75161 0.334805 1.75991 0.26294 1.78934C0.191075 1.81876 0.1291 1.86809 0.0842955 1.93151C0.039491 1.99494 0.0137178 2.06984 0.0100038 2.1474C0.0062897 2.22497 0.024789 2.30198 0.0633285 2.3694L7.72 15.7941C7.75576 15.8569 7.80758 15.9091 7.87016 15.9453C7.93273 15.9816 8.00381 16.0005 8.07611 16.0002C8.14841 16 8.21934 15.9805 8.28164 15.9438C8.34394 15.9071 8.39537 15.8545 8.43066 15.7914L15.9373 2.36807C15.975 2.30053 15.9926 2.22369 15.9883 2.1465C15.9839 2.06931 15.9577 1.99495 15.9127 1.93208C15.8677 1.8692 15.8058 1.8204 15.7341 1.79137C15.6625 1.76233 15.5841 1.75425 15.508 1.76807V1.76807Z" fill="#F2F2F2"/>
</g>
</g>
<defs>
<clipPath id="clip0_338_456">
<rect width="16" height="16" fill="white"/>
</clipPath>
<clipPath id="clip1_338_456">
<rect width="16" height="16" fill="white"/>
</clipPath>
</defs>
</svg>
