<svg width="16" height="16" viewBox="0 0 16 16" fill="none" xmlns="http://www.w3.org/2000/svg">
<g clip-path="url(#clip0_338_456)">
<g clip-path="url(#clip1_338_456)">
<path d="M14.7991 12.3319L8.28587 16.0001V13.1431L12.344 10.9205L14.7991 12.3319L14.7991 12.3319ZM15.2447 11.9302V4.25888L12.8612 5.62848V10.5591L15.2447 11.9302ZM1.20087 12.3319L7.71414 16.0001V13.1431L3.65601 10.9205L1.20094 12.3319L1.20087 12.3319ZM0.755341 11.9302V4.25888L3.13874 5.62848V10.5591L0.755341 11.9302ZM1.03421 3.76254L7.71414 -0.00012207V2.76214L3.43467 5.10568L3.40207 5.12434L1.03421 3.76254ZM14.9659 3.76254L8.28587 -0.00012207V2.76214L12.5653 5.10574L12.5979 5.12441L14.9658 3.76261L14.9659 3.76254ZM7.71421 12.4932L3.71047 10.3017V5.95888L7.71407 8.26054V12.4932H7.71421ZM8.28587 12.4932L12.2894 10.3017V5.95888L8.28587 8.26054V12.4932ZM3.98161 5.45628L8.00074 3.25528L12.02 5.45628L8.00081 7.76728L3.98161 5.45628Z" fill="#F2F2F2"/>
</g>
</g>
<defs>
<clipPath id="clip0_338_456">
<rect width="16" height="16" fill="white"/>
</clipPath>
<clipPath id="clip1_338_456">
<rect width="16" height="16" fill="white"/>
</clipPath>
</defs>
</svg>
