<svg width="16" height="16" viewBox="0 0 16 16" fill="none" xmlns="http://www.w3.org/2000/svg">
<g clip-path="url(#clip0_338_456)">
<g clip-path="url(#clip1_338_456)">
<path d="M2.27667 0.365967L0 2.47463L1.49467 3.76663L0.364667 4.98863L7.81533 15.5946H7.89133C6.14133 9.3373 6.19133 9.3093 4.92733 4.84797L4.62333 5.0233C4.458 5.11863 4.32267 5.04063 4.32267 4.84997V2.72263C3.98667 1.5473 3.724 0.638633 3.64667 0.365967H2.27667ZM12.3533 0.365967C12.276 0.6393 12.0133 1.5473 11.6773 2.72263V4.84997C11.6773 5.04063 11.542 5.11863 11.3773 5.0233L11.0727 4.8473C9.808 9.3093 9.85867 9.3373 8.10867 15.594C8.09733 15.6406 8.14867 15.654 8.18467 15.594L15.6353 4.9893L14.5047 3.76663L16 2.47463L13.7233 0.365967H12.3533ZM4.68933 0.865967C4.61067 0.870633 4.556 0.935967 4.556 1.04663V4.46463C4.556 4.62597 4.67067 4.6913 4.80933 4.6113L6.85467 3.42997C6.81813 3.38928 6.79774 3.33664 6.79733 3.28197V2.1913C6.79733 2.14663 6.81133 2.1053 6.83467 2.06997L4.81 0.899967C4.77407 0.877399 4.73243 0.8656 4.69 0.865967H4.68933ZM11.3153 0.865967C11.2728 0.865724 11.2312 0.877762 11.1953 0.900633L9.17 2.0693C9.19446 2.10531 9.20768 2.14777 9.208 2.1913V3.28197C9.20745 3.33706 9.18656 3.39001 9.14933 3.43063L11.1947 4.61063C11.3347 4.69197 11.448 4.62597 11.448 4.4653V1.04663C11.448 0.935967 11.3947 0.870633 11.3153 0.866633V0.865967ZM7.082 2.10797C7.01467 2.10797 6.96 2.1453 6.96 2.1913V3.28197C6.96 3.32797 7.01467 3.3653 7.082 3.3653H8.92267C8.99 3.3653 9.04533 3.32797 9.04533 3.28197V2.1913C9.04533 2.14463 8.99 2.10797 8.92267 2.10797H7.082ZM7.94467 4.53597C7.87198 4.53588 7.79998 4.55013 7.73281 4.57791C7.66564 4.60568 7.6046 4.64644 7.55321 4.69784C7.50181 4.74924 7.46105 4.81027 7.43327 4.87744C7.4055 4.94462 7.39125 5.01661 7.39133 5.0893C7.39142 5.16188 7.4058 5.23373 7.43366 5.30075C7.46151 5.36776 7.5023 5.42864 7.55368 5.4799C7.60506 5.53116 7.66603 5.57179 7.73312 5.59949C7.80021 5.62718 7.87209 5.64139 7.94467 5.6413C8.09124 5.6413 8.23182 5.58307 8.33546 5.47943C8.43911 5.37578 8.49733 5.23521 8.49733 5.08863C8.49733 5.016 8.48302 4.94408 8.4552 4.87698C8.42738 4.80989 8.38662 4.74893 8.33523 4.6976C8.28384 4.64627 8.22283 4.60558 8.1557 4.57784C8.08857 4.55011 8.01663 4.53588 7.944 4.53597H7.94467ZM7.938 7.82263C7.79247 7.82421 7.65343 7.88314 7.55108 7.98661C7.44873 8.09009 7.39132 8.22976 7.39133 8.3753C7.39133 8.44793 7.40565 8.51985 7.43347 8.58695C7.46128 8.65405 7.50205 8.715 7.55344 8.76633C7.60483 8.81766 7.66584 8.85835 7.73297 8.88609C7.8001 8.91382 7.87203 8.92805 7.94467 8.92797C8.01724 8.92788 8.08909 8.9135 8.15611 8.88564C8.22313 8.85779 8.28401 8.817 8.33527 8.76562C8.38652 8.71424 8.42716 8.65327 8.45485 8.58618C8.48255 8.51909 8.49675 8.44721 8.49667 8.37463C8.49649 8.22817 8.43819 8.08777 8.33456 7.98427C8.23093 7.88077 8.09046 7.82263 7.944 7.82263C7.942 7.82262 7.94 7.82262 7.938 7.82263V7.82263ZM7.94467 11.1093C7.87209 11.1092 7.80021 11.1234 7.73312 11.1511C7.66603 11.1788 7.60506 11.2194 7.55368 11.2707C7.5023 11.322 7.46151 11.3828 7.43366 11.4499C7.4058 11.5169 7.39142 11.5887 7.39133 11.6613C7.39125 11.734 7.4055 11.806 7.43327 11.8732C7.46105 11.9403 7.50181 12.0014 7.55321 12.0528C7.6046 12.1042 7.66564 12.1449 7.73281 12.1727C7.79998 12.2005 7.87198 12.2147 7.94467 12.2146C8.0173 12.2146 8.08922 12.2003 8.15632 12.1725C8.22341 12.1447 8.28437 12.1039 8.3357 12.0525C8.38703 12.0011 8.42772 11.9401 8.45546 11.873C8.48319 11.8059 8.49742 11.7339 8.49733 11.6613C8.49733 11.5887 8.48302 11.5167 8.4552 11.4496C8.42738 11.3826 8.38662 11.3216 8.33523 11.2703C8.28384 11.2189 8.22283 11.1782 8.1557 11.1505C8.08857 11.1228 8.01663 11.1085 7.944 11.1086L7.94467 11.1093Z" fill="#F2F2F2"/>
</g>
</g>
<defs>
<clipPath id="clip0_338_456">
<rect width="16" height="16" fill="white"/>
</clipPath>
<clipPath id="clip1_338_456">
<rect width="16" height="16" fill="white"/>
</clipPath>
</defs>
</svg>
