<svg width="16" height="16" viewBox="0 0 16 16" fill="none" xmlns="http://www.w3.org/2000/svg">
<g clip-path="url(#clip0_338_456)">
<g clip-path="url(#clip1_338_456)">
<path d="M6.88333 0.268003C6.722 0.259337 6.21267 0.49467 5.94867 0.63067C5.35067 0.945337 5.18867 1.052 4.74467 1.65734C4.234 2.35467 4.022 2.74934 3.936 3.11134C3.68067 4.03934 3.58067 4.504 3.17067 5.06734C2.866 5.29667 2.80667 5.59534 2.56333 5.93734C2.40733 6.15534 1.98867 6.89067 1.988 6.94867C1.986 7.05734 1.95467 7.082 1.62867 7.07134C1.278 7.05934 1.138 7.09734 0.96 7.27067C0.8 7.42534 0.768 7.43067 0.767333 7.97334C0.767333 8.62667 0.92 8.7 1.15 9.00334C0.804667 9.86534 0.0653333 12.3853 0 13.9233C0 14.0533 0.01 14.394 0.0873333 15.084C0.178667 15.2813 0.312 15.4267 0.478667 15.5313C1.02667 15.5727 1.65333 15.7327 2.73867 15.7327C3.61533 15.7327 5.31 15.346 5.44533 15.3093C5.90733 15.186 6.626 14.8027 7.11867 14.518C7.23467 14.4513 8.04867 14.1567 8.356 13.9247C8.51533 13.804 9.33 13.3433 9.614 13.1207C10.198 12.6627 10.254 12.564 10.7587 11.826C10.9887 11.4893 11.09 11.3967 11.3113 10.856L11.318 10.3873C11.4927 10.4473 12.774 10.7927 12.9247 10.8827C13.1693 11.0287 12.9327 11.1813 12.8027 11.334C12.7093 11.444 12.864 11.5493 12.952 11.4693C13.08 11.3533 13.4727 11.0933 13.448 10.9627C13.448 10.8733 13.238 10.744 12.91 10.5813C12.6127 10.434 12.6327 10.436 12.7393 10.4047C13.3427 10.204 13.6767 10.1133 14.094 9.87134C15.212 9.17667 15.7973 8.554 15.9347 7.92C16.0667 7.336 15.9947 6.90667 15.7527 6.39067C15.6307 5.93534 15.4107 5.76734 14.926 5.566C14.3607 5.33067 13.3287 5.226 12.918 5.366C12.5733 5.48267 11.7333 5.858 11.3073 6.07067C11.0767 6.186 10.8853 6.27534 10.882 6.26867C10.778 6.09934 10.6687 5.93134 10.5733 5.742C10.4053 5.40867 10.3267 5.30267 10.1573 5.224C10.0687 5.18267 9.90067 5.10734 9.70133 4.96734C9.37067 4.738 8.92667 4.42067 7.886 4.13867C8.48067 3.10867 8.48867 2.97867 8.57867 2.414C8.662 1.99467 8.69067 1.29067 8.60467 1.10067C8.52667 0.929337 8.19333 0.567337 7.968 0.459337C7.528 0.249337 7.25133 0.268003 6.88333 0.268003V0.268003ZM6.89867 0.644003C7.01333 0.643337 7.14467 0.65867 7.31333 0.69067C7.60667 0.747337 7.79867 0.824003 8.094 1.004L8.294 1.12534L8.33733 1.47534C8.38333 1.85134 8.368 2.13267 8.28867 2.374C8.262 2.45667 8.19933 2.65667 8.15067 2.81867C8.054 3.14134 7.81867 3.49534 7.72667 3.64267C7.70667 3.676 7.64333 3.628 7.616 3.696C7.49333 4.00667 7.34933 4.02067 7.10933 4.04267C7.034 4.04934 6.51667 4.012 5.98467 3.996C5.34267 4.01467 5.09333 3.84934 4.306 4.168C4.13733 4.232 4.658 3.228 4.71267 3.128C4.85267 2.87467 5.59733 2.02134 5.77933 1.95334C5.93267 1.896 6.08333 1.726 6.21667 1.59867C6.43667 1.38867 6.49533 1.36667 6.72667 1.322C6.94267 1.28 7.43733 1.12867 7.68 1.29734C7.83 1.416 7.934 1.65534 7.91067 1.84467C7.86467 2.222 7.81133 2.37267 7.57933 2.718C7.03 3.536 7.042 3.552 7.11333 3.59334C7.18333 3.63334 7.17 3.656 7.158 3.70067C7.12067 3.838 7.16267 3.80934 7.26533 3.774C7.47533 3.70067 7.8 3.11 8.01133 2.44C8.13933 2.03267 8.138 2.21667 8.118 1.69334C8.10667 1.38334 8.09867 1.41667 7.99667 1.25C7.84533 1.00334 7.69667 0.923337 7.18333 0.923337C6.63 0.922003 6.42133 0.945337 6.066 1.26667C5.664 1.62934 5.344 1.78 4.76667 2.636C4.482 2.94334 4.15333 3.71267 4.00067 4.254C3.98133 4.25067 3.972 4.26734 3.99067 4.01C4.01933 3.618 4.114 3.35134 4.51733 2.52667C4.80333 1.944 4.904 1.77134 5.024 1.66C5.43267 1.28 6.13067 0.84867 6.584 0.69667C6.686 0.662003 6.784 0.64467 6.89867 0.643337V0.644003ZM7.75533 4.65534C8.69267 5.016 9.31533 5.06867 10.05 5.758C10.5033 6.49667 10.65 7.238 10.8807 8.048C11.1093 8.75467 11.1007 9.87334 11.0947 10.028C10.8187 9.92334 10.544 9.89667 10.2333 9.88534C10.1933 9.524 9.47533 9.46134 9.21267 9.33534C8.87133 9.18334 8.34933 9.09267 7.67933 8.984C7.03933 8.83734 6.51067 8.91 5.86467 8.90067C5.79133 8.96734 5.738 9.02467 5.67933 9.112C5.57933 9.05867 5.44333 8.92867 5.25667 8.936C5.18667 8.936 5.17867 8.924 5.20333 8.74934C5.21933 8.63734 5.27133 8.546 5.21467 8.494C5.06733 8.358 5.10333 8.34867 5.08067 8.28334C4.34267 7.85667 3.06133 7.20934 2.40067 7.14334C2.62733 6.826 2.53067 6.79667 2.60267 6.68267C2.784 6.39667 3.248 5.78734 3.35133 5.55334C3.35133 5.40067 3.83333 4.89734 4.28667 4.55134C5.24 4.36467 6.66333 4.37467 7.75533 4.65534V4.65534ZM13.4347 5.65867C14.5047 5.686 14.8787 5.816 15.2327 6.17667C15.582 6.54334 15.698 6.76134 15.698 7.05C15.698 7.286 15.5127 7.94534 15.39 8.148C14.9233 8.916 13.88 9.75067 12.99 10.068C12.7793 10.142 12.6713 10.1567 12.2593 10.1667C11.9907 10.19 11.6527 10.138 11.3947 10.08C11.5413 8.37267 11.412 8.26 11.2627 7.566C11.3227 7.41934 11.5993 7.246 11.544 7.15867C12.0613 6.832 12.4273 6.46534 12.8327 6.34C13.1047 6.24 13.1613 6.23267 13.728 6.216C14.2627 6.20067 14.3573 6.20667 14.544 6.266C14.942 6.39267 15.3873 6.76334 15.3873 6.968C15.3873 7.09667 15.4167 7.12934 15.4787 7.12867C15.6253 7.12734 15.5793 6.91134 15.5033 6.756C15.2513 6.28667 14.858 6.12 14.4813 6.03534C14.386 6.01534 14.0813 5.96934 13.806 5.95667C13.412 5.93867 13.246 5.95334 13.044 5.99667C12.724 6.06467 12.4453 6.156 12.176 6.394C11.9693 6.57734 11.6047 6.788 11.306 6.93067C11.2353 6.94067 11.19 6.81734 11.1353 6.75267C11.8373 6.21467 12.4887 5.73867 13.4347 5.65934V5.65867ZM1.812 7.30667C1.60933 7.632 1.46867 7.868 1.46267 8.124C1.38267 8.32467 1.31133 8.52067 1.20933 8.72867C0.960667 8.478 1.04 7.94467 1.14733 7.71734C1.38533 7.25734 1.39267 7.37867 1.812 7.30667ZM2.344 7.38067C3.07533 7.60467 3.842 7.80734 4.80933 8.404C4.99467 8.51534 4.896 8.73734 4.82533 9.09334C4.73228 9.2072 4.61765 9.30156 4.48803 9.37101C4.35841 9.44045 4.21635 9.48361 4.07 9.498C4.35733 9.20867 4.65533 8.70134 4.338 8.35534C4.25933 8.25134 4.238 8.23467 4.09933 8.24467C3.91 8.258 3.90733 8.24067 3.806 8.504C3.588 8.76067 3.478 9.36534 3.55133 9.55467C3.174 9.53267 2.16667 9.45334 1.58467 9.082C1.64733 8.92 1.808 8.68534 1.82333 8.47267C1.90267 8.312 2.23667 7.36267 2.34333 7.38067H2.344ZM4.144 8.52C4.25533 8.708 4.016 9.27667 3.866 9.34734C3.756 8.946 3.97733 8.56734 4.14333 8.52H4.144ZM6.5 9.074C6.79133 9.074 7.32667 9.13534 7.97333 9.24267C8.53067 9.33467 8.63667 9.36067 9.11667 9.51867C9.686 9.69467 9.64867 9.76134 9.84133 10.042C9.88333 10.102 9.94533 10.286 9.978 10.448C10.0507 10.8033 9.71 11.0767 9.018 11.2193C8.782 11.268 8.56933 11.284 8.198 11.2813C7.612 11.2767 7.40467 11.252 7.07467 11.148C6.584 10.994 6.332 10.778 6.062 10.326C5.91533 10.0793 5.88 10.05 5.90067 9.86934C5.94333 9.49467 6.02267 9.25134 6.13133 9.16C6.22067 9.08467 6.26667 9.074 6.5 9.074ZM5.17733 9.13067C5.244 9.12867 5.568 9.28 5.63267 9.324C5.538 9.58067 5.62667 10.2053 5.888 10.5087C5.94933 10.604 6.1 10.8187 6.24467 10.962C6.70067 11.4173 6.998 11.492 8.01533 11.4927C8.86733 11.494 9.11533 11.4473 9.53867 11.3113C9.93133 11.186 10.0507 11.026 10.0967 10.9147C10.21 10.6467 10.2647 10.37 10.2373 10.0833L11.0953 10.3273C11.0247 10.9047 10.704 11.244 10.466 11.5413C10.2887 11.8267 9.922 12.3613 9.81867 12.4507C9.32067 12.8793 8.86133 13.1807 7.86667 13.7413C7.574 13.9067 6.788 14.212 6.584 14.314C6.376 14.418 5.63933 14.854 5.538 14.884C5.19913 14.9828 4.85259 15.053 4.502 15.094C4.23533 15.1253 3.28867 15.2687 2.68533 15.2933C2.24533 15.3027 2.12533 15.2573 1.58067 15.2733C1.28867 15.2173 0.65 15.0727 0.65 15.0727C0.46 14.768 0.410667 14.5347 0.357333 14.182C0.8 14.7007 1.066 14.876 1.42067 14.876C1.74 14.876 1.904 14.756 2.034 14.756C2.116 14.756 2.33667 14.6007 2.32533 14.4993C2.31455 14.3501 2.25533 14.2085 2.15667 14.096C2.00333 13.998 1.09 13.6353 0.935333 13.6353C0.508667 13.6353 0.414667 13.6687 0.368667 13.7553C0.632 12.3273 0.974667 10.678 1.482 9.342C2.26467 9.68467 3.54667 9.93334 4.17733 9.72067C5.14533 9.38067 4.924 9.264 5.17733 9.13067V9.13067ZM7.722 9.23067C7.61 9.23067 7.33133 9.536 7.226 9.774C7.12 10.0133 7.09133 10.3813 7.17067 10.4773C7.236 10.556 7.506 10.5573 7.642 10.4747C7.90733 10.3127 8.16133 9.744 8.09667 9.44934C8.07333 9.34267 7.87667 9.23067 7.722 9.23067V9.23067ZM7.73933 9.49067C7.838 9.60934 7.71267 9.93 7.59733 10.0573C7.46133 10.2013 7.32667 10.222 7.36533 10.096C7.45867 9.86067 7.66933 9.48667 7.73933 9.49067ZM1.78667 14.308C1.89067 14.3407 2.022 14.488 1.99667 14.528C1.57133 14.552 1.33133 14.5227 1.296 14.52C1.15133 14.5087 0.684667 14.3067 0.698 14.082C0.716 13.8187 1.578 14.2887 1.78667 14.308V14.308Z" fill="#F2F2F2"/>
</g>
</g>
<defs>
<clipPath id="clip0_338_456">
<rect width="16" height="16" fill="white"/>
</clipPath>
<clipPath id="clip1_338_456">
<rect width="16" height="16" fill="white"/>
</clipPath>
</defs>
</svg>
