<svg width="16" height="16" viewBox="0 0 16 16" fill="none" xmlns="http://www.w3.org/2000/svg">
<g clip-path="url(#clip0_338_456)">
<g clip-path="url(#clip1_338_456)">
<path d="M5.71401 15.6193C5.71401 15.6693 5.70416 15.7188 5.68503 15.765C5.6659 15.8112 5.63786 15.8532 5.60251 15.8885C5.56716 15.9239 5.5252 15.9519 5.47901 15.971C5.43283 15.9902 5.38333 16 5.33334 16H1.52401C1.42296 16 1.32605 15.9599 1.2546 15.8884C1.18315 15.817 1.14301 15.72 1.14301 15.619C1.14301 15.518 1.18315 15.421 1.2546 15.3496C1.32605 15.2781 1.42296 15.238 1.52401 15.238H5.33334C5.54401 15.238 5.71401 15.4087 5.71401 15.6193ZM5.33334 13.7133H4.57134C4.47029 13.7133 4.37338 13.7535 4.30193 13.8249C4.23048 13.8964 4.19034 13.9933 4.19034 14.0943C4.19034 14.1954 4.23048 14.2923 4.30193 14.3637C4.37338 14.4352 4.47029 14.4753 4.57134 14.4753H5.33334C5.43439 14.4753 5.5313 14.4352 5.60275 14.3637C5.6742 14.2923 5.71434 14.1954 5.71434 14.0943C5.71434 13.9933 5.6742 13.8964 5.60275 13.8249C5.5313 13.7535 5.43439 13.7133 5.33334 13.7133ZM1.52401 14.4753H3.04667C3.14772 14.4753 3.24463 14.4352 3.31608 14.3637C3.38753 14.2923 3.42767 14.1954 3.42767 14.0943C3.42767 13.9933 3.38753 13.8964 3.31608 13.8249C3.24463 13.7535 3.14772 13.7133 3.04667 13.7133H1.52401C1.42296 13.7133 1.32605 13.7535 1.2546 13.8249C1.18315 13.8964 1.14301 13.9933 1.14301 14.0943C1.14301 14.1954 1.18315 14.2923 1.2546 14.3637C1.32605 14.4352 1.42296 14.4753 1.52401 14.4753ZM5.33334 12.1907H1.52401C1.42296 12.1907 1.32605 12.2308 1.2546 12.3023C1.18315 12.3737 1.14301 12.4706 1.14301 12.5717C1.14301 12.6727 1.18315 12.7696 1.2546 12.8411C1.32605 12.9125 1.42296 12.9527 1.52401 12.9527H5.33334C5.43439 12.9527 5.5313 12.9125 5.60275 12.8411C5.6742 12.7696 5.71434 12.6727 5.71434 12.5717C5.71434 12.4706 5.6742 12.3737 5.60275 12.3023C5.5313 12.2308 5.43439 12.1907 5.33334 12.1907V12.1907ZM10.6667 10.6667H3.80934C3.70829 10.6667 3.61138 10.7068 3.53993 10.7783C3.46848 10.8497 3.42834 10.9466 3.42834 11.0477C3.42834 11.1487 3.46848 11.2456 3.53993 11.3171C3.61138 11.3885 3.70829 11.4287 3.80934 11.4287H10.6667C10.7677 11.4287 10.8646 11.3885 10.9361 11.3171C11.0075 11.2456 11.0477 11.1487 11.0477 11.0477C11.0477 10.9466 11.0075 10.8497 10.9361 10.7783C10.8646 10.7068 10.7677 10.6667 10.6667 10.6667V10.6667ZM1.52401 11.4287H2.28601C2.38705 11.4287 2.48396 11.3885 2.55541 11.3171C2.62686 11.2456 2.66701 11.1487 2.66701 11.0477C2.66701 10.9466 2.62686 10.8497 2.55541 10.7783C2.48396 10.7068 2.38705 10.6667 2.28601 10.6667H1.52401C1.42296 10.6667 1.32605 10.7068 1.2546 10.7783C1.18315 10.8497 1.14301 10.9466 1.14301 11.0477C1.14301 11.1487 1.18315 11.2456 1.2546 11.3171C1.32605 11.3885 1.42296 11.4287 1.52401 11.4287V11.4287ZM12.9527 9.14267H10.6667C10.5656 9.14267 10.4687 9.18281 10.3973 9.25426C10.3258 9.32571 10.2857 9.42262 10.2857 9.52367C10.2857 9.62471 10.3258 9.72162 10.3973 9.79307C10.4687 9.86453 10.5656 9.90467 10.6667 9.90467H12.9527C13.0537 9.90467 13.1506 9.86453 13.2221 9.79307C13.2935 9.72162 13.3337 9.62471 13.3337 9.52367C13.3337 9.42262 13.2935 9.32571 13.2221 9.25426C13.1506 9.18281 13.0537 9.14267 12.9527 9.14267V9.14267ZM6.09534 9.90467H9.14267C9.24372 9.90467 9.34063 9.86453 9.41208 9.79307C9.48353 9.72162 9.52367 9.62471 9.52367 9.52367C9.52367 9.42262 9.48353 9.32571 9.41208 9.25426C9.34063 9.18281 9.24372 9.14267 9.14267 9.14267H6.09534C5.99429 9.14267 5.89738 9.18281 5.82593 9.25426C5.75448 9.32571 5.71434 9.42262 5.71434 9.52367C5.71434 9.62471 5.75448 9.72162 5.82593 9.79307C5.89738 9.86453 5.99429 9.90467 6.09534 9.90467ZM1.52401 9.90467H4.57134C4.67239 9.90467 4.7693 9.86453 4.84075 9.79307C4.9122 9.72162 4.95234 9.62471 4.95234 9.52367C4.95234 9.42262 4.9122 9.32571 4.84075 9.25426C4.7693 9.18281 4.67239 9.14267 4.57134 9.14267H1.52401C1.42296 9.14267 1.32605 9.18281 1.2546 9.25426C1.18315 9.32571 1.14301 9.42262 1.14301 9.52367C1.14301 9.62471 1.18315 9.72162 1.2546 9.79307C1.32605 9.86453 1.42296 9.90467 1.52401 9.90467V9.90467ZM13.7133 7.62H7.62001C7.51905 7.62 7.42222 7.66011 7.35083 7.7315C7.27945 7.80288 7.23934 7.89971 7.23934 8.00067C7.23934 8.10163 7.27945 8.19845 7.35083 8.26984C7.42222 8.34123 7.51905 8.38133 7.62001 8.38133H13.7147C13.8156 8.38133 13.9125 8.34123 13.9838 8.26984C14.0552 8.19845 14.0953 8.10163 14.0953 8.00067C14.0953 7.89971 14.0552 7.80288 13.9838 7.7315C13.9125 7.66011 13.8156 7.62 13.7147 7.62H13.7133ZM6.47601 8C6.47601 7.89904 6.4359 7.80222 6.36451 7.73083C6.29312 7.65944 6.1963 7.61933 6.09534 7.61933H3.80934C3.70838 7.61933 3.61156 7.65944 3.54017 7.73083C3.46878 7.80222 3.42867 7.89904 3.42867 8C3.42867 8.10096 3.46878 8.19778 3.54017 8.26917C3.61156 8.34056 3.70838 8.38067 3.80934 8.38067H6.09534C6.1963 8.38067 6.29312 8.34056 6.36451 8.26917C6.4359 8.19778 6.47601 8.10096 6.47601 8ZM1.52401 8.38067H2.28601C2.38696 8.38067 2.48379 8.34056 2.55518 8.26917C2.62657 8.19778 2.66667 8.10096 2.66667 8C2.66667 7.89904 2.62657 7.80222 2.55518 7.73083C2.48379 7.65944 2.38696 7.61933 2.28601 7.61933H1.52401C1.42305 7.61933 1.32622 7.65944 1.25483 7.73083C1.18344 7.80222 1.14334 7.89904 1.14334 8C1.14334 8.10096 1.18344 8.19778 1.25483 8.26917C1.32622 8.34056 1.42305 8.38067 1.52401 8.38067V8.38067ZM14.476 6.09533H10.6667C10.5656 6.09533 10.4687 6.13547 10.3973 6.20693C10.3258 6.27838 10.2857 6.37529 10.2857 6.47633C10.2857 6.57738 10.3258 6.67429 10.3973 6.74574C10.4687 6.81719 10.5656 6.85733 10.6667 6.85733H14.476C14.5771 6.85733 14.674 6.81719 14.7454 6.74574C14.8169 6.67429 14.857 6.57738 14.857 6.47633C14.857 6.37529 14.8169 6.27838 14.7454 6.20693C14.674 6.13547 14.5771 6.09533 14.476 6.09533V6.09533ZM1.52401 6.85733H5.33334C5.43439 6.85733 5.5313 6.81719 5.60275 6.74574C5.6742 6.67429 5.71434 6.57738 5.71434 6.47633C5.71434 6.37529 5.6742 6.27838 5.60275 6.20693C5.5313 6.13547 5.43439 6.09533 5.33334 6.09533H1.52401C1.42296 6.09533 1.32605 6.13547 1.2546 6.20693C1.18315 6.27838 1.14301 6.37529 1.14301 6.47633C1.14301 6.57738 1.18315 6.67429 1.2546 6.74574C1.32605 6.81719 1.42296 6.85733 1.52401 6.85733V6.85733ZM10.286 4.95267C10.286 5.16267 10.456 5.33333 10.6667 5.33333H14.476C14.5771 5.33333 14.674 5.29319 14.7454 5.22174C14.8169 5.15029 14.857 5.05338 14.857 4.95233C14.857 4.85129 14.8169 4.75438 14.7454 4.68293C14.674 4.61147 14.5771 4.57133 14.476 4.57133H10.6667C10.6166 4.57133 10.5671 4.5812 10.5208 4.60037C10.4746 4.61955 10.4326 4.64764 10.3973 4.68306C10.3619 4.71848 10.3339 4.76053 10.3148 4.80679C10.2957 4.85305 10.2859 4.90262 10.286 4.95267V4.95267ZM4.57134 4.57133C4.47029 4.57133 4.37338 4.61147 4.30193 4.68293C4.23048 4.75438 4.19034 4.85129 4.19034 4.95233C4.19034 5.05338 4.23048 5.15029 4.30193 5.22174C4.37338 5.29319 4.47029 5.33333 4.57134 5.33333H5.33334C5.43439 5.33333 5.5313 5.29319 5.60275 5.22174C5.6742 5.15029 5.71434 5.05338 5.71434 4.95233C5.71434 4.85129 5.6742 4.75438 5.60275 4.68293C5.5313 4.61147 5.43439 4.57133 5.33334 4.57133H4.57134V4.57133ZM1.52401 5.33333H3.04667C3.14772 5.33333 3.24463 5.29319 3.31608 5.22174C3.38753 5.15029 3.42767 5.05338 3.42767 4.95233C3.42767 4.85129 3.38753 4.75438 3.31608 4.68293C3.24463 4.61147 3.14772 4.57133 3.04667 4.57133H1.52401C1.42296 4.57133 1.32605 4.61147 1.2546 4.68293C1.18315 4.75438 1.14301 4.85129 1.14301 4.95233C1.14301 5.05338 1.18315 5.15029 1.2546 5.22174C1.32605 5.29319 1.42296 5.33333 1.52401 5.33333V5.33333ZM12.5713 3.42867C12.5713 3.63867 12.742 3.80933 12.9527 3.80933H13.714C13.8151 3.80933 13.912 3.76919 13.9834 3.69774C14.0549 3.62629 14.095 3.52938 14.095 3.42833C14.095 3.32729 14.0549 3.23038 13.9834 3.15893C13.912 3.08747 13.8151 3.04733 13.714 3.04733H12.9533C12.9032 3.04725 12.8536 3.05705 12.8073 3.07618C12.761 3.09531 12.7189 3.1234 12.6835 3.15883C12.6481 3.19426 12.62 3.23633 12.6009 3.28263C12.5817 3.32894 12.5719 3.37856 12.572 3.42867H12.5713ZM11.8093 3.42867C11.8094 3.37862 11.7996 3.32905 11.7806 3.28279C11.7615 3.23653 11.7334 3.19448 11.6981 3.15906C11.6627 3.12364 11.6207 3.09555 11.5745 3.07637C11.5283 3.0572 11.4787 3.04733 11.4287 3.04733H8.38001C8.27896 3.04733 8.18205 3.08747 8.1106 3.15893C8.03915 3.23038 7.99901 3.32729 7.99901 3.42833C7.99901 3.52938 8.03915 3.62629 8.1106 3.69774C8.18205 3.76919 8.27896 3.80933 8.38001 3.80933H11.428C11.529 3.80933 11.6258 3.76923 11.6972 3.69784C11.7686 3.62645 11.8087 3.52963 11.8087 3.42867H11.8093ZM1.52401 3.80933H6.85734C6.95839 3.80933 7.05529 3.76919 7.12675 3.69774C7.1982 3.62629 7.23834 3.52938 7.23834 3.42833C7.23834 3.32729 7.1982 3.23038 7.12675 3.15893C7.05529 3.08747 6.95839 3.04733 6.85734 3.04733H1.52401C1.42296 3.04733 1.32605 3.08747 1.2546 3.15893C1.18315 3.23038 1.14301 3.32729 1.14301 3.42833C1.14301 3.52938 1.18315 3.62629 1.2546 3.69774C1.32605 3.76919 1.42296 3.80933 1.52401 3.80933V3.80933ZM4.95267 1.90467C4.95267 2.11533 5.12267 2.286 5.33334 2.286H12.9527C13.0537 2.286 13.1506 2.24586 13.2221 2.17441C13.2935 2.10296 13.3337 2.00605 13.3337 1.905C13.3337 1.80395 13.2935 1.70704 13.2221 1.63559C13.1506 1.56414 13.0537 1.524 12.9527 1.524H5.33334C5.23238 1.524 5.13556 1.56411 5.06417 1.63549C4.99278 1.70688 4.95267 1.80371 4.95267 1.90467V1.90467ZM1.52401 2.286H3.80934C3.91039 2.286 4.0073 2.24586 4.07875 2.17441C4.1502 2.10296 4.19034 2.00605 4.19034 1.905C4.19034 1.80395 4.1502 1.70704 4.07875 1.63559C4.0073 1.56414 3.91039 1.524 3.80934 1.524H1.52401C1.42296 1.524 1.32605 1.56414 1.2546 1.63559C1.18315 1.70704 1.14301 1.80395 1.14301 1.905C1.14301 2.00605 1.18315 2.10296 1.2546 2.17441C1.32605 2.24586 1.42296 2.286 1.52401 2.286V2.286ZM1.52401 0.762H10.6667C10.7677 0.762 10.8646 0.721859 10.9361 0.650408C11.0075 0.578956 11.0477 0.482048 11.0477 0.381C11.0477 0.279953 11.0075 0.183044 10.9361 0.111592C10.8646 0.040141 10.7677 0 10.6667 0L1.52401 0C1.42296 0 1.32605 0.040141 1.2546 0.111592C1.18315 0.183044 1.14301 0.279953 1.14301 0.381C1.14301 0.482048 1.18315 0.578956 1.2546 0.650408C1.32605 0.721859 1.42296 0.762 1.52401 0.762V0.762Z" fill="#F2F2F2"/>
</g>
</g>
<defs>
<clipPath id="clip0_338_456">
<rect width="16" height="16" fill="white"/>
</clipPath>
<clipPath id="clip1_338_456">
<rect width="16" height="16" fill="white"/>
</clipPath>
</defs>
</svg>
