<svg width="16" height="16" viewBox="0 0 16 16" fill="none" xmlns="http://www.w3.org/2000/svg">
<g clip-path="url(#clip0_338_456)">
<g clip-path="url(#clip1_338_456)">
<path d="M4.83799 6.08799L7.87733 4.33332C7.91464 4.31186 7.95694 4.30056 7.99999 4.30056C8.04304 4.30056 8.08534 4.31186 8.12266 4.33332L11.162 6.08799C11.1994 6.10965 11.2304 6.14077 11.2519 6.17822C11.2735 6.21566 11.2847 6.25812 11.2847 6.30132V9.80999C11.2846 9.85306 11.2732 9.89536 11.2517 9.93267C11.2301 9.96998 11.1992 10.001 11.162 10.0227L8.12266 11.7773C8.08534 11.7988 8.04304 11.8101 7.99999 11.8101C7.95694 11.8101 7.91464 11.7988 7.87733 11.7773L4.83799 10.0227C4.80062 10.001 4.7696 9.96988 4.74807 9.93243C4.72653 9.89498 4.71524 9.85252 4.71533 9.80932V6.30132C4.71531 6.25814 4.72663 6.2157 4.74816 6.17827C4.76968 6.14083 4.80066 6.1097 4.83799 6.08799M15.9013 7.68666L12.2707 1.36999C12.1387 1.14132 11.8947 0.972656 11.6307 0.972656H4.36999C4.10599 0.972656 3.86199 1.14132 3.72999 1.36999L0.0993263 7.67266C0.0346139 7.78608 0.000579834 7.91441 0.000579834 8.04499C0.000579834 8.17557 0.0346139 8.3039 0.0993263 8.41732L3.73066 14.6827C3.86199 14.9107 4.10599 15.0273 4.36999 15.0273H11.632C11.8953 15.0273 12.1387 14.914 12.2713 14.686L15.902 8.41066C15.9667 8.30098 16.0008 8.17598 16.0008 8.04866C16.0008 7.92133 15.9667 7.79633 15.902 7.68666M12.8953 10.724C12.8941 10.7701 12.8809 10.8151 12.8571 10.8546C12.8332 10.8941 12.7995 10.9267 12.7593 10.9493L8.13333 13.6173C8.09353 13.6401 8.04849 13.652 8.00266 13.652C7.95683 13.652 7.91179 13.6401 7.87199 13.6173L3.24333 10.9493C3.20298 10.9268 3.16917 10.8942 3.14521 10.8547C3.12125 10.8152 3.10797 10.7702 3.10666 10.724V5.38666C3.10666 5.29332 3.16199 5.20732 3.24266 5.16132L7.86666 2.49332C7.94666 2.44666 8.04799 2.44666 8.12799 2.49332L12.7567 5.16199C12.7971 5.18441 12.8311 5.21697 12.8552 5.25648C12.8792 5.29599 12.8926 5.34108 12.894 5.38732L12.8953 10.724Z" fill="#F2F2F2"/>
</g>
</g>
<defs>
<clipPath id="clip0_338_456">
<rect width="16" height="16" fill="white"/>
</clipPath>
<clipPath id="clip1_338_456">
<rect width="16" height="16" fill="white"/>
</clipPath>
</defs>
</svg>
