<svg width="16" height="16" viewBox="0 0 16 16" fill="none" xmlns="http://www.w3.org/2000/svg">
<g clip-path="url(#clip0_338_456)">
<g clip-path="url(#clip1_338_456)">
<path d="M9.27333 1.67004C8.69133 0.704712 7.292 0.704712 6.71066 1.67004L4.60266 5.28004C6.21311 6.08399 7.58524 7.29522 8.58281 8.79345C9.58039 10.2917 10.1687 12.0248 10.2893 13.8207H8.80867C8.68823 12.2814 8.16794 10.8002 7.29928 9.5237C6.43063 8.2472 5.24372 7.21965 3.856 6.54271L1.90533 9.91604C2.68546 10.266 3.36509 10.8064 3.88174 11.4876C4.39839 12.1689 4.73548 12.9691 4.862 13.8147H1.46266C1.42228 13.8119 1.38322 13.7991 1.34904 13.7774C1.31485 13.7558 1.28662 13.7259 1.26689 13.6905C1.24716 13.6552 1.23657 13.6155 1.23606 13.575C1.23556 13.5345 1.24516 13.4945 1.264 13.4587L2.206 11.8574C1.88703 11.5912 1.52248 11.385 1.13 11.2487L0.197331 12.85C0.100263 13.0165 0.0372423 13.2006 0.0119305 13.3917C-0.0133813 13.5827 -0.000479763 13.7769 0.0498856 13.9629C0.100251 14.1489 0.187076 14.3231 0.305318 14.4753C0.42356 14.6274 0.570861 14.7546 0.738665 14.8494C0.959768 14.9738 1.20894 15.0399 1.46266 15.0414H6.118C6.20441 13.9746 6.01385 12.9035 5.56476 11.932C5.11567 10.9605 4.42328 10.1214 3.55466 9.49604L4.29466 8.21471C5.3908 8.96746 6.2717 9.99303 6.85041 11.1902C7.42913 12.3874 7.68565 13.7148 7.59467 15.0414H11.538C11.6297 13.0319 11.1925 11.0336 10.2701 9.24602C9.34764 7.45846 7.97225 5.94426 6.28133 4.85471L7.77733 2.29138C7.81064 2.23559 7.8646 2.1952 7.92752 2.17897C7.99043 2.16275 8.0572 2.172 8.11333 2.20471C8.28333 2.29804 14.6133 13.3434 14.732 13.4714C14.7529 13.5088 14.7636 13.5511 14.7629 13.594C14.7622 13.6369 14.7502 13.6789 14.7281 13.7156C14.7059 13.7524 14.6745 13.7826 14.6369 13.8033C14.5993 13.824 14.5569 13.8344 14.514 13.8334H12.9893C13.0087 14.2414 13.0087 14.6487 12.9893 15.054H14.5207C14.7796 15.0555 15.0343 14.9885 15.259 14.86C15.4837 14.7314 15.6706 14.5458 15.8006 14.3219C15.9306 14.098 15.9992 13.8437 15.9994 13.5848C15.9997 13.3259 15.9316 13.0715 15.802 12.8474L9.27333 1.67004Z" fill="#F2F2F2"/>
</g>
</g>
<defs>
<clipPath id="clip0_338_456">
<rect width="16" height="16" fill="white"/>
</clipPath>
<clipPath id="clip1_338_456">
<rect width="16" height="16" fill="white"/>
</clipPath>
</defs>
</svg>
