<svg width="16" height="16" viewBox="0 0 16 16" fill="none" xmlns="http://www.w3.org/2000/svg">
<g clip-path="url(#clip0_338_456)">
<g clip-path="url(#clip1_338_456)">
<path d="M15.7336 6.39508L15.7111 6.33761L13.5333 0.654213C13.489 0.542788 13.4106 0.448265 13.3092 0.384213C13.2078 0.321285 13.0895 0.290989 12.9703 0.297415C12.8511 0.303841 12.7368 0.346679 12.6427 0.420146C12.5497 0.49571 12.4822 0.598112 12.4494 0.713413L10.9791 5.21208H5.02499L3.55452 0.713413C3.52262 0.597471 3.45497 0.494544 3.36119 0.419279C3.26711 0.345832 3.15276 0.303018 3.03358 0.296616C2.9144 0.290214 2.79613 0.320533 2.69472 0.383479C2.59359 0.447773 2.5152 0.542189 2.47059 0.653413L0.288788 6.33428L0.267122 6.39175C-0.0463797 7.21085 -0.0850819 8.10967 0.15685 8.95269C0.398783 9.7957 0.908234 10.5372 1.60839 11.0654L1.61592 11.0712L1.63592 11.0854L4.95326 13.5697L6.59459 14.8119L7.59426 15.5666C7.7112 15.6554 7.85399 15.7035 8.00082 15.7035C8.14765 15.7035 8.29045 15.6554 8.40739 15.5666L9.40706 14.8119L11.0483 13.5697L14.3857 11.0704L14.394 11.0637C15.0926 10.5354 15.6008 9.7947 15.8424 8.95282C16.084 8.11094 16.0458 7.2134 15.7336 6.39508V6.39508Z" fill="#F2F2F2"/>
</g>
</g>
<defs>
<clipPath id="clip0_338_456">
<rect width="16" height="16" fill="white"/>
</clipPath>
<clipPath id="clip1_338_456">
<rect width="16" height="16" fill="white"/>
</clipPath>
</defs>
</svg>
