<svg width="16" height="16" viewBox="0 0 16 16" fill="none" xmlns="http://www.w3.org/2000/svg">
<g clip-path="url(#clip0_338_456)">
<path d="M10.568 5.98733H7.50934V0H10.568C12.2187 0 13.5613 1.34267 13.5613 2.99333C13.5613 4.644 12.2187 5.98733 10.568 5.98733V5.98733ZM8.49 5.00667H10.568C11.678 5.00667 12.5807 4.10333 12.5807 2.994C12.5807 1.88467 11.6773 0.981333 10.568 0.981333H8.49V5.00667V5.00667ZM8.49 5.98733H5.432C3.78134 5.98733 2.43867 4.64467 2.43867 2.994C2.43867 1.34333 3.78134 0 5.432 0H8.49067V5.98733H8.49ZM5.432 0.980667C4.322 0.980667 3.41934 1.884 3.41934 2.99333C3.41934 4.10267 4.322 5.00667 5.432 5.00667H7.51V0.980667H5.432ZM8.49 10.9933H5.432C3.78134 10.9933 2.43867 9.65067 2.43867 8C2.43867 6.34933 3.78134 5.00667 5.432 5.00667H8.49067V10.9933H8.49ZM5.432 5.98733C4.322 5.98733 3.41934 6.89067 3.41934 8C3.41934 9.10933 4.32267 10.0127 5.432 10.0127H7.51V5.98733H5.432ZM5.448 16C3.78867 16 2.438 14.6573 2.438 13.0067C2.438 11.356 3.78067 10.0133 5.43134 10.0133H8.49V12.974C8.49 14.6427 7.12534 16 5.448 16V16ZM5.432 10.9933C4.89843 10.994 4.38691 11.2063 4.00961 11.5836C3.63232 11.9609 3.42004 12.4724 3.41934 13.006C3.41934 14.116 4.32934 15.0187 5.44867 15.0187C6.58534 15.0187 7.51067 14.1013 7.51067 12.9733V10.9933H5.432V10.9933ZM10.568 10.9933H10.5027C8.852 10.9933 7.50934 9.65067 7.50934 8C7.50934 6.34933 8.852 5.00667 10.5027 5.00667H10.568C12.2187 5.00667 13.5613 6.34933 13.5613 8C13.5613 9.65067 12.2187 10.9933 10.568 10.9933V10.9933ZM10.5033 5.98733C9.39334 5.98733 8.49067 6.89067 8.49067 8C8.49067 9.10933 9.394 10.0127 10.5033 10.0127H10.5687C11.6787 10.0127 12.5813 9.10933 12.5813 8C12.5813 6.89067 11.678 5.98733 10.5687 5.98733H10.5033V5.98733Z" fill="#F2F2F2"/>
</g>
<defs>
<clipPath id="clip0_338_456">
<rect width="16" height="16" fill="white"/>
</clipPath>
</defs>
</svg>
