<svg width="16" height="16" viewBox="0 0 16 16" fill="none" xmlns="http://www.w3.org/2000/svg">
<g clip-path="url(#clip0_338_456)">
<g clip-path="url(#clip1_338_456)">
<path d="M12.7067 3.55511C13.0078 3.42604 13.2229 3.38304 13.438 3.42604C13.7822 3.51211 13.9543 3.77024 14.0833 3.89924C14.2124 4.15738 14.6856 4.41551 14.9007 4.45851C15.0728 4.50151 15.3739 4.02831 15.5891 3.59811C15.8042 3.21091 15.9333 2.69464 15.8902 2.56558C15.8472 2.43651 15.2449 2.17838 15.1158 2.17838C15.0297 2.17838 14.8577 2.26444 14.5565 2.22138C14.2554 2.17838 13.9543 1.83418 13.7821 1.57604C13.481 1.14584 13.0508 0.887709 12.6636 0.672576C12.2334 0.457443 11.7601 0.328376 11.2869 0.242376C10.5986 0.0703095 9.91026 -0.0587572 9.22193 0.0272428C8.83473 0.0702428 8.36153 0.113309 8.01733 0.242376C7.97433 0.242376 7.88826 0.371443 7.97433 0.371443C8.06039 0.371443 8.36153 0.414443 8.36153 0.414443C8.36153 0.414443 7.97439 0.500576 7.97439 0.586643C7.97439 0.672709 8.01739 0.672709 8.06046 0.672709C8.10346 0.672709 9.04993 0.629709 9.43713 0.672709C9.86733 0.758776 10.3406 0.973843 10.6417 1.49011C11.158 2.43658 10.9429 3.34004 10.8138 3.64118C10.1685 5.06084 5.04899 13.7941 4.79086 14.3964C4.53266 14.9986 4.44666 15.3858 5.17799 15.773C5.90933 16.1602 6.29653 15.9882 6.51166 15.73C6.76979 15.3858 11.2009 4.28644 12.7067 3.55511V3.55511ZM10.2975 9.36291H11.33C12.0183 9.36291 12.1474 9.70711 12.1474 9.83611C12.1904 10.1803 12.0183 10.6105 11.33 10.6105H10.6847L11.2009 11.4709C11.5021 11.9872 11.373 12.2453 11.2009 12.4174C10.9428 12.6755 10.3835 12.6755 10.0824 12.1162L9.48013 11.0837C9.04993 12.0302 8.61973 13.0626 8.10346 14.2672H10.7707C12.0613 14.2672 13.1369 13.1917 13.1369 11.9011V4.37251C13.0939 4.28644 13.0078 4.32951 12.9648 4.37251C12.7067 4.67364 11.9753 5.70611 10.2975 9.36291V9.36291ZM3.75833 14.6975H3.54319C1.99446 14.6975 0.74686 13.4499 0.74686 11.9012V4.67364C0.74686 3.12491 1.99446 1.87731 3.54319 1.87731H9.78126C9.65219 1.74824 9.13593 1.53311 8.61973 1.57618C8.40459 1.57618 7.97439 1.66224 7.71626 1.49011C7.45813 1.27498 7.50113 1.14591 7.11399 1.14591H3.28513C1.52126 1.14591 0.101593 2.56558 0.101593 4.32944V12.1592C0.101593 13.9231 1.52126 15.3428 3.07006 15.2998C3.50019 15.2998 3.62926 14.9556 3.75833 14.6975V14.6975ZM13.6101 4.63058V11.9011C13.6101 13.4498 12.3625 14.6974 10.8138 14.6974H7.93133C7.93133 14.6974 7.67319 15.3858 8.49059 15.3858H11.0719C12.8357 15.3858 14.2554 13.9661 14.2554 12.2022V5.87818C14.2985 5.27591 13.7822 4.88871 13.6101 4.63058ZM1.22006 4.67364V11.9012C1.22006 13.1918 2.29559 14.2673 3.58619 14.2673H3.97339C3.97339 14.2243 4.48966 13.3208 5.60819 11.4279C5.73726 11.1698 5.90933 10.9116 6.08139 10.6105H2.94093C2.55373 10.6105 2.33866 10.3524 2.29559 10.1373C2.20953 9.79311 2.42466 9.36291 2.89786 9.36291H4.48966L6.51166 5.83518C6.51166 5.83518 6.03846 4.97478 5.90939 4.75964C5.73726 4.45851 5.82333 4.15738 5.99539 3.98531C6.25353 3.72718 6.68373 3.59811 7.11393 4.28644L7.28599 4.54458L7.45806 4.28644C7.84526 3.72718 8.10339 3.77018 8.31846 3.81324C8.66266 3.89931 8.87773 4.28644 8.57659 4.88878L5.90933 9.36291H6.81279C7.11393 8.84664 7.41506 8.33038 7.71626 7.77111C7.67326 7.55598 7.63019 7.29791 7.67326 7.08278C7.71626 6.73858 7.88839 6.43744 8.10346 6.17931L8.36159 6.60951C9.17899 5.18984 9.78126 3.98524 9.95339 3.51198C10.0395 3.25384 10.1685 2.73758 10.0395 2.30738H3.58626C2.25259 2.30744 1.22006 3.38298 1.22006 4.67364V4.67364ZM3.06999 11.8581C3.06999 11.8151 3.58626 10.9116 3.58626 10.9116C4.40366 10.6965 4.79086 11.2128 4.83386 11.2558C4.83386 11.2558 4.27459 12.2453 4.10253 12.4174C3.93046 12.5894 3.71533 12.6325 3.50026 12.5894C3.15599 12.5034 2.94093 12.1592 3.06999 11.8581Z" fill="#F2F2F2"/>
</g>
</g>
<defs>
<clipPath id="clip0_338_456">
<rect width="16" height="16" fill="white"/>
</clipPath>
<clipPath id="clip1_338_456">
<rect width="16" height="16" fill="white"/>
</clipPath>
</defs>
</svg>
