<svg width="16" height="16" viewBox="0 0 16 16" fill="none" xmlns="http://www.w3.org/2000/svg">
<g clip-path="url(#clip0_338_456)">
<g clip-path="url(#clip1_338_456)">
<path d="M15.4332 1.72468L12.1399 0.140016C11.9538 0.0503866 11.7444 0.020846 11.5407 0.0554846C11.3371 0.0901232 11.1492 0.187227 11.0032 0.333349L4.69655 6.08668L1.94988 4.00135C1.82596 3.90736 1.67305 3.8597 1.51768 3.86664C1.3623 3.87358 1.21426 3.93468 1.09921 4.03935L0.217878 4.84068C0.149199 4.90312 0.0943124 4.9792 0.0567338 5.06407C0.0191551 5.14894 -0.000288044 5.24072 -0.0003508 5.33354C-0.000413556 5.42635 0.0189054 5.51816 0.0563693 5.60308C0.0938332 5.688 0.148616 5.76416 0.217212 5.82668L2.59921 8.00002L0.217212 10.1733C0.148616 10.2359 0.0938332 10.312 0.0563693 10.397C0.0189054 10.4819 -0.000413556 10.5737 -0.0003508 10.6665C-0.000288044 10.7593 0.0191551 10.8511 0.0567338 10.936C0.0943124 11.0208 0.149199 11.0969 0.217878 11.1593L1.09988 11.96C1.21492 12.0647 1.36297 12.1258 1.51835 12.1327C1.67372 12.1397 1.82663 12.092 1.95055 11.998L4.69721 9.91268L11.0039 15.666C11.1497 15.8122 11.3375 15.9093 11.541 15.9439C11.7446 15.9786 11.9539 15.949 12.1399 15.8593L15.4345 14.2747C15.604 14.1929 15.747 14.0649 15.847 13.9054C15.947 13.746 16 13.5616 15.9999 13.3733V2.62602C15.9999 2.43766 15.9467 2.25313 15.8465 2.09367C15.7462 1.93421 15.603 1.8063 15.4332 1.72468ZM12.0025 11.632L7.21721 8.00002L12.0025 4.36802V11.632V11.632Z" fill="#F2F2F2"/>
</g>
</g>
<defs>
<clipPath id="clip0_338_456">
<rect width="16" height="16" fill="white"/>
</clipPath>
<clipPath id="clip1_338_456">
<rect width="16" height="16" fill="white"/>
</clipPath>
</defs>
</svg>
