<svg width="16" height="16" viewBox="0 0 16 16" fill="none" xmlns="http://www.w3.org/2000/svg">
<g clip-path="url(#clip0_338_456)">
<g clip-path="url(#clip1_338_456)">
<path d="M11.14 0.162102L11.06 1.96877C11.059 1.99162 11.0646 2.01427 11.0761 2.03406C11.0876 2.05385 11.1044 2.06994 11.1248 2.08045C11.1451 2.09096 11.168 2.09544 11.1908 2.09337C11.2135 2.0913 11.2352 2.08277 11.2533 2.06877L11.96 1.53544L12.56 2.0021C12.5776 2.01391 12.5981 2.02085 12.6192 2.02219C12.6404 2.02354 12.6615 2.01925 12.6805 2.00977C12.6995 2.00028 12.7156 1.98594 12.7272 1.9682C12.7388 1.95045 12.7456 1.92995 12.7467 1.90877L12.68 0.0687686L13.5667 0.00210189C13.6761 -0.00511635 13.7858 0.0102305 13.889 0.0471896C13.9922 0.0841487 14.0868 0.141931 14.1667 0.21695C14.2467 0.291969 14.3104 0.382622 14.3538 0.483283C14.3973 0.583943 14.4196 0.692462 14.4193 0.802102V15.1994C14.4195 15.3079 14.3975 15.4153 14.3549 15.5151C14.3122 15.6149 14.2496 15.7049 14.1711 15.7797C14.0925 15.8546 13.9995 15.9126 13.8978 15.9504C13.7961 15.9882 13.6877 16.0049 13.5793 15.9994L2.84867 15.5194C2.64686 15.5111 2.45566 15.4268 2.31345 15.2833C2.17125 15.1399 2.08857 14.948 2.082 14.7461L1.582 1.5481C1.57569 1.443 1.59019 1.3377 1.62467 1.23821C1.65914 1.13873 1.71291 1.04703 1.7829 0.968373C1.85289 0.889715 1.93771 0.825645 2.03251 0.779838C2.12731 0.734031 2.23022 0.707388 2.33534 0.701435L11.1333 0.148102L11.14 0.162102ZM9.09334 6.2001C9.09334 6.51344 11.2 6.3601 11.4867 6.14677C11.4867 4.01344 10.34 2.88677 8.24734 2.88677C6.14734 2.88677 4.98134 4.03344 4.98134 5.74677C4.98134 8.71344 8.98067 8.76677 8.98067 10.3861C8.98067 10.8528 8.76734 11.1194 8.28067 11.1194C7.64067 11.1194 7.38067 10.7928 7.414 9.67944C7.414 9.43944 4.98134 9.35944 4.90134 9.67944C4.72134 12.3661 6.388 13.1461 8.30067 13.1461C10.1607 13.1461 11.6133 12.1528 11.6133 10.3594C11.6133 7.17943 7.54734 7.2661 7.54734 5.69344C7.54734 5.04677 8.02734 4.9601 8.30067 4.9601C8.60067 4.9601 9.134 5.00677 9.094 6.20677L9.09334 6.2001Z" fill="#F2F2F2"/>
</g>
</g>
<defs>
<clipPath id="clip0_338_456">
<rect width="16" height="16" fill="white"/>
</clipPath>
<clipPath id="clip1_338_456">
<rect width="16" height="16" fill="white"/>
</clipPath>
</defs>
</svg>
