<svg width="16" height="16" viewBox="0 0 16 16" fill="none" xmlns="http://www.w3.org/2000/svg">
<g clip-path="url(#clip0_338_456)">
<g clip-path="url(#clip1_338_456)">
<path d="M0.75 0C0.334667 0 0 0.334667 0 0.75V15.25C0 15.6653 0.334667 16 0.75 16H15.25C15.6653 16 16 15.6653 16 15.25V0.75C16 0.334667 15.6653 0 15.25 0H0.75ZM12.3253 6.5C12.7333 6.5 13.0947 6.52467 13.41 6.574C13.7074 6.61856 13.9993 6.69454 14.2807 6.80067V8.43933C14.1456 8.34592 14.0021 8.26535 13.852 8.19867C13.6972 8.12902 13.5374 8.07108 13.374 8.02533C13.0644 7.93906 12.7447 7.89423 12.4233 7.892C12.2233 7.892 12.0413 7.91067 11.8773 7.94933C11.7312 7.98059 11.5909 8.03506 11.462 8.11067C11.3487 8.18 11.262 8.26333 11.2 8.36C11.1376 8.45743 11.1052 8.571 11.1067 8.68667C11.1067 8.81733 11.142 8.93533 11.2107 9.03933C11.28 9.14333 11.3787 9.242 11.506 9.33533C11.6333 9.42867 11.788 9.51933 11.97 9.60867C12.152 9.69867 12.358 9.79133 12.5873 9.886C12.9007 10.0173 13.182 10.1573 13.4313 10.3047C13.6807 10.4527 13.8947 10.62 14.0733 10.8067C14.252 10.9927 14.388 11.2053 14.4827 11.4447C14.5773 11.684 14.6253 11.962 14.6253 12.28C14.6253 12.718 14.542 13.0867 14.3767 13.384C14.2151 13.6772 13.9833 13.9258 13.702 14.1073C13.3988 14.2996 13.0627 14.4343 12.7107 14.5047C12.3333 14.5847 11.9353 14.6247 11.5173 14.6247C11.1059 14.6265 10.6953 14.5899 10.2907 14.5153C9.94062 14.4548 9.60113 14.3441 9.28267 14.1867V12.4333C9.88519 12.9461 10.6495 13.2294 11.4407 13.2333C11.6627 13.2333 11.8567 13.2133 12.022 13.1733C12.188 13.1333 12.326 13.0773 12.4373 13.0067C12.548 12.9347 12.6307 12.8507 12.686 12.7533C12.7472 12.64 12.775 12.5117 12.7662 12.3832C12.7575 12.2547 12.7126 12.1313 12.6367 12.0273C12.5376 11.8963 12.4165 11.7835 12.2787 11.694C12.1078 11.5807 11.9278 11.4817 11.7407 11.398C11.5188 11.2967 11.295 11.1998 11.0693 11.1073C10.4573 10.852 10.0013 10.5393 9.70067 10.1707C9.40067 9.802 9.25 9.356 9.25 8.834C9.25 8.42467 9.332 8.07333 9.496 7.77933C9.66 7.48533 9.88267 7.24333 10.1653 7.05333C10.4643 6.8561 10.7962 6.71407 11.1453 6.634C11.532 6.54284 11.9281 6.49786 12.3253 6.5V6.5ZM2.25 6.62533H8.62533V8.06933H6.33733V14.5H4.526V8.06933H2.25V6.62533Z" fill="#F2F2F2"/>
</g>
</g>
<defs>
<clipPath id="clip0_338_456">
<rect width="16" height="16" fill="white"/>
</clipPath>
<clipPath id="clip1_338_456">
<rect width="16" height="16" fill="white"/>
</clipPath>
</defs>
</svg>
